<?xml version="1.0" encoding="UTF-8" standalone="no"?>
<!DOCTYPE svg PUBLIC "-//W3C//DTD SVG 1.1//EN" "http://www.w3.org/Graphics/SVG/1.1/DTD/svg11.dtd">
<svg width="100%" height="100%" viewBox="0 0 800 600" version="1.1" xmlns="http://www.w3.org/2000/svg" xmlns:xlink="http://www.w3.org/1999/xlink" xml:space="preserve" xmlns:serif="http://www.serif.com/" style="fill-rule:evenodd;clip-rule:evenodd;stroke-linejoin:round;stroke-miterlimit:2;">
    <g transform="matrix(0.0496349,-0.0642347,0.0642347,0.0496349,118.651,225.634)">
        <g transform="matrix(1.74404,-0.130309,0.192276,2.57339,-3157.96,-6073.12)">
            <path d="M2781,4040C2781,4040 2973.96,4124.89 3084,4085C3194.04,4045.12 3211.91,4181.07 3152,4208C3092.09,4234.93 2941.08,4338.55 2978.19,4409C3015.31,4479.45 2781,4040 2781,4040Z" style="fill:rgb(254,242,204);"/>
        </g>
        <g transform="matrix(1,0,0,1,-3135,-3113.57)">
            <path d="M4859,6660C5704.59,6574.24 6272.88,7242.56 6246,8047C6220.11,8821.84 5650.41,9465.25 4859,9434C4094.09,9403.79 3472,8812.51 3472,8047C3472,7620.91 3664.55,7239.44 3967.3,6984.93C4208.48,6782.18 4521.32,6694.25 4859,6660ZM4859,7484C5223.41,7440.99 5479.85,7689.92 5422,8047C5372.31,8353.73 5169.73,8610 4859,8610C4548.27,8610 4296,8357.73 4296,8047C4296,7736.27 4550.41,7520.42 4859,7484Z" style="fill:rgb(255,221,170);"/>
        </g>
        <g transform="matrix(1,0,0,1,9,-7)">
            <path d="M1724.46,3676.53C2259.42,3676.53 2650.09,4020.89 2830,4493C2882.8,4631.55 2978.19,4773.27 2978.19,4930.26C2978.19,5295.92 2783.07,5567.74 2533,5797C2309.85,6001.59 2050.75,6240 1724.46,6240C1032.5,6240 470.72,5622.22 470.72,4930.26C470.72,4683.04 572.259,4486.31 696,4292C918.595,3942.47 1279.73,3676.53 1724.46,3676.53Z" style="fill:rgb(94,61,38);"/>
        </g>
    </g>
    <g transform="matrix(0.698747,0.102386,-0.102386,0.698747,94.7133,-1076.64)">
        <path d="M1011.94,2046.62C994.1,2045.78 974.785,2038.03 957.058,2035.91C908.318,2030.08 872.541,1999.48 921.027,1993.93C964.871,1988.92 995.011,2005.94 1038.85,2006.97" style="fill:rgb(181,140,98);"/>
        <path d="M1012.21,2040.96C994.496,2040.12 975.329,2032.39 957.731,2030.29C934.912,2027.56 915.014,2019.33 906.609,2010.83C905.589,2009.8 904.768,2008.79 904.216,2007.78C903.837,2007.08 903.514,2006.45 903.684,2005.82C904,2004.65 905.306,2003.92 907.112,2003.06C910.418,2001.46 915.211,2000.3 921.671,1999.56C942.935,1997.13 960.872,2000.09 978.812,2003.74C997.618,2007.56 1016.43,2012.11 1038.71,2012.63C1041.84,2012.71 1044.43,2010.23 1044.51,2007.1C1044.58,2003.98 1042.1,2001.38 1038.98,2001.31C1017.43,2000.8 999.252,1996.33 981.068,1992.63C962.018,1988.76 942.963,1985.72 920.384,1988.31C910.503,1989.43 903.759,1991.65 899.59,1994.29C895.667,1996.77 893.581,1999.78 892.747,2002.87C891.449,2007.68 893.19,2013.38 898.557,2018.8C908.104,2028.45 930.464,2038.43 956.386,2041.53C974.241,2043.67 993.704,2051.43 1011.68,2052.28C1014.8,2052.42 1017.45,2050.01 1017.6,2046.88C1017.75,2043.76 1015.33,2041.11 1012.21,2040.96Z" style="fill:rgb(7,0,0);"/>
    </g>
    <g transform="matrix(0.698747,0.102386,-0.102386,0.698747,94.7133,-1076.64)">
        <path d="M1051.59,1972.99C1035.13,1971.11 1010.07,1967.43 993.589,1965.79C986.186,1965.06 941.409,1956.66 934,1956C924.523,1955.15 912.446,1950.32 903.534,1946.57C899.441,1944.85 890.13,1942.44 887.248,1939.48C878.59,1930.59 887.925,1923.04 901.389,1919.58C940.852,1909.46 1015.63,1923.4 1057.25,1921.74" style="fill:rgb(181,140,98);"/>
        <path d="M1052.23,1967.36C1035.75,1965.48 1010.65,1961.8 994.148,1960.16C986.739,1959.42 941.919,1951.02 934.503,1950.36C925.544,1949.56 914.156,1944.89 905.731,1941.35C903.259,1940.31 898.896,1939.02 895.175,1937.51C893.567,1936.86 892.058,1936.3 891.306,1935.53C890.222,1934.41 889.456,1933.53 889.567,1932.55C889.683,1931.53 890.585,1930.78 891.618,1929.96C894.281,1927.85 898.281,1926.23 902.796,1925.07C941.961,1915.03 1016.17,1929.05 1057.48,1927.4C1060.6,1927.28 1063.04,1924.64 1062.91,1921.52C1062.79,1918.39 1060.15,1915.96 1057.03,1916.08C1015.09,1917.75 939.744,1903.9 899.982,1914.1C893.378,1915.79 887.674,1918.44 883.971,1921.58C880.61,1924.43 878.708,1927.78 878.312,1931.27C877.888,1935 879.07,1939.2 883.189,1943.43C884.432,1944.71 886.443,1946.01 888.896,1947.14C892.937,1949 898.432,1950.57 901.338,1951.79C910.737,1955.75 923.503,1960.75 933.497,1961.64C940.899,1962.3 985.634,1970.69 993.029,1971.43C1009.49,1973.06 1034.52,1976.74 1050.95,1978.61C1054.06,1978.97 1056.87,1976.73 1057.22,1973.62C1057.57,1970.52 1055.34,1967.71 1052.23,1967.36Z" style="fill:rgb(7,0,0);"/>
    </g>
    <g transform="matrix(0.70554,0.0307171,-0.0307171,0.70554,-45.4111,-1018.54)">
        <path d="M1051.83,1881.86C1010.97,1885.72 998.304,1887.76 957.514,1882.8C952.277,1882.17 917.849,1875.86 923,1865C930.021,1850.2 953.338,1841.73 967.177,1841.32C1010.39,1840.03 999.285,1840.33 1042.46,1837.44" style="fill:rgb(181,140,98);"/>
        <path d="M928.296,1867.07C930.705,1862.26 935.265,1858.36 940.49,1855.26C949.174,1850.1 959.803,1847.2 967.346,1846.98C1010.68,1845.69 999.543,1845.99 1042.84,1843.09C1045.96,1842.88 1048.32,1840.18 1048.11,1837.06C1047.9,1833.94 1045.2,1831.58 1042.08,1831.79C999.027,1834.67 1010.1,1834.37 967.009,1835.65C957.944,1835.92 945.142,1839.32 934.706,1845.52C927.314,1849.91 921.14,1855.71 917.883,1862.57C915.132,1868.37 917.492,1873.98 924.117,1878.27C933.498,1884.34 952.871,1887.94 956.831,1888.43C998.146,1893.45 1010.98,1891.41 1052.36,1887.5C1055.48,1887.21 1057.76,1884.44 1057.47,1881.33C1057.18,1878.22 1054.41,1875.93 1051.3,1876.22C1010.96,1880.03 998.462,1882.08 958.198,1877.18C955.726,1876.88 946.367,1875.23 938.231,1872.39C935.243,1871.34 932.421,1870.15 930.27,1868.76C929.556,1868.3 928.685,1867.45 928.296,1867.07Z" style="fill:rgb(7,0,0);"/>
    </g>
    <g transform="matrix(0.989435,0.14498,-0.164355,1.12166,-84.1901,-37.4982)">
        <path d="M100.654,111.358L132,134L200,160L252,177L303,189.585L342,201L422,213L498.442,231.116L551,226.742L575,218L606,205L629,203L647.937,213L640,226.742L623,240.484L606,247L585.361,253L569,258.102L543.681,266.173C543.681,266.173 571.177,343.7 584.036,344.831C604.612,346.642 527.883,341.427 527.883,341.427L485,337.071L397.295,327.994L323,312L116,267.812L85,258.102L33,161L100.654,111.358Z" style="fill:rgb(181,140,98);"/>
    </g>
    <g transform="matrix(0.698747,0.102386,-0.116069,0.792126,120.928,-1255.55)">
        <path d="M88.048,1912.77C279.379,1964.8 476.092,2016.79 674.566,2028.09C712.73,2030.27 749.298,2037.55 787.026,2036.2C790.149,2036.09 792.582,2033.76 792.455,2031.01C792.329,2028.25 789.69,2026.11 786.566,2026.22C749.235,2027.55 713.058,2020.27 675.296,2018.12C477.696,2006.87 281.872,1955.02 91.385,1903.22C88.398,1902.41 85.225,1903.89 84.304,1906.52C83.383,1909.16 85.061,1911.96 88.048,1912.77Z" style="fill:rgb(7,0,0);"/>
    </g>
    <g transform="matrix(0.698747,0.102386,-0.116069,0.792126,120.928,-1255.55)">
        <path d="M99.99,1702.15C107.95,1718.69 127.964,1728.44 143.457,1735.97C176.937,1752.24 210.694,1768.44 246.498,1779.01C311.794,1798.27 377.935,1817.19 444.542,1831.39C474.343,1837.75 504.711,1840.76 534.554,1846.81C585.689,1857.19 634.435,1873.15 686.865,1875.86C740.221,1878.61 780.228,1856.76 830.258,1837.58C831.103,1837.26 832.706,1837.09 834.761,1836.91C841.012,1836.38 850.606,1836.5 859.1,1837.82C862.885,1838.41 866.446,1839.24 869.315,1840.4C871.231,1841.18 872.86,1841.97 873.565,1843.21C875.331,1846.3 874.372,1849.53 872.602,1852.55C869.056,1858.6 862.11,1863.9 857.88,1866.83C842.279,1877.6 823.916,1884.69 807.073,1893.28C800.187,1896.79 780.606,1900.89 761.031,1905.05C740.242,1909.46 719.444,1913.89 711.975,1917.31C709.199,1918.57 708.112,1921.59 709.55,1924.04C710.987,1926.49 714.408,1927.45 717.184,1926.18C725.722,1922.28 752.616,1917.22 775.749,1912.17C792.179,1908.59 806.804,1904.95 812.741,1901.93C830.037,1893.11 848.844,1885.76 864.864,1874.69C870.027,1871.13 878.337,1864.53 882.665,1857.14C886.146,1851.2 887.155,1844.8 883.682,1838.71C881.325,1834.59 875.503,1831.26 867.824,1829.33C857.635,1826.78 844.126,1826.27 835.273,1826.85C830.845,1827.13 827.44,1827.77 825.742,1828.42C777.455,1846.93 739.023,1868.54 687.526,1865.88C635.733,1863.21 587.607,1847.32 537.093,1837.07C507.291,1831.03 476.964,1828.03 447.203,1821.68C380.908,1807.55 315.08,1788.7 250.09,1769.53C214.929,1759.16 181.803,1743.2 148.924,1727.22C135.395,1720.64 117.368,1712.68 110.417,1698.25C109.195,1695.71 105.867,1694.52 102.989,1695.6C100.112,1696.68 98.768,1699.62 99.99,1702.15Z" style="fill:rgb(7,0,0);"/>
    </g>
    <path d="M17.244,150.003C17.62,150.874 17.948,151.765 18.299,152.646C18.708,153.671 19.872,154.172 20.897,153.764C21.923,153.355 22.424,152.191 22.015,151.166C21.651,150.25 21.308,149.325 20.918,148.42C20.481,147.406 19.303,146.938 18.29,147.375C17.276,147.812 16.808,148.989 17.244,150.003Z"/>
    <path d="M27.109,164.12C28.985,167.129 30.82,170.167 32.837,173.087C33.464,173.995 34.711,174.224 35.619,173.596C36.527,172.969 36.755,171.722 36.128,170.814C34.147,167.945 32.346,164.96 30.503,162.004C29.919,161.067 28.684,160.781 27.748,161.365C26.811,161.949 26.525,163.183 27.109,164.12Z"/>
    <path d="M49.335,174.891C52.59,178.145 54.725,182.88 57.361,186.626C57.996,187.528 59.245,187.745 60.147,187.11C61.05,186.475 61.267,185.226 60.632,184.324C57.869,180.397 55.575,175.474 52.163,172.062C51.383,171.282 50.115,171.282 49.335,172.062C48.554,172.843 48.554,174.11 49.335,174.891Z"/>
    <path d="M52.227,203.106C54.184,205.702 56.819,208.023 59.218,210.191C60.037,210.931 61.303,210.867 62.043,210.048C62.783,209.229 62.719,207.963 61.9,207.223C59.684,205.22 57.229,203.097 55.421,200.699C54.757,199.817 53.502,199.641 52.62,200.306C51.739,200.97 51.563,202.225 52.227,203.106Z"/>
    <path d="M82.167,194.362C85.825,199.304 89.135,204.393 93.213,209.034C93.941,209.863 95.206,209.944 96.035,209.216C96.864,208.487 96.946,207.222 96.217,206.393C92.214,201.837 88.974,196.834 85.382,191.982C84.725,191.095 83.471,190.908 82.584,191.565C81.697,192.222 81.51,193.475 82.167,194.362Z"/>
    <path d="M78.552,216.239C83.919,221.296 89.291,226.35 94.54,231.532C95.325,232.308 96.593,232.3 97.368,231.514C98.144,230.729 98.136,229.461 97.35,228.686C92.079,223.482 86.684,218.406 81.295,213.327C80.491,212.57 79.225,212.608 78.468,213.411C77.711,214.215 77.748,215.482 78.552,216.239Z"/>
    <path d="M125.816,222.866C127.005,224.605 128.556,226.074 130.058,227.536C130.848,228.306 132.116,228.289 132.886,227.498C133.656,226.708 133.639,225.44 132.848,224.67C131.535,223.392 130.157,222.128 129.117,220.608C128.494,219.697 127.249,219.463 126.338,220.086C125.426,220.709 125.192,221.955 125.816,222.866Z"/>
    <path d="M148.48,229.999C151.797,234.837 157.091,239.078 161.61,242.714C162.47,243.406 163.73,243.269 164.422,242.409C165.114,241.549 164.977,240.289 164.117,239.597C159.886,236.193 154.885,232.268 151.779,227.738C151.155,226.827 149.91,226.595 148.999,227.219C148.089,227.843 147.856,229.089 148.48,229.999Z"/>
    <path d="M136.739,254.02C137.928,255.133 139.129,256.23 140.333,257.327C141.149,258.07 142.415,258.011 143.158,257.195C143.901,256.379 143.842,255.113 143.026,254.37C141.836,253.286 140.648,252.2 139.472,251.1C138.666,250.345 137.4,250.387 136.645,251.193C135.891,251.999 135.933,253.266 136.739,254.02Z"/>
    <path d="M118.701,204.802C120.302,206.096 121.986,207.27 123.678,208.441C124.586,209.069 125.833,208.842 126.461,207.935C127.089,207.027 126.863,205.78 125.955,205.152C124.344,204.037 122.739,202.923 121.215,201.691C120.357,200.997 119.097,201.131 118.403,201.989C117.709,202.847 117.842,204.108 118.701,204.802Z"/>
    <path d="M184.754,262.229C185.696,262.989 186.677,263.711 187.654,264.424C188.545,265.075 189.798,264.879 190.448,263.987C191.099,263.096 190.903,261.844 190.012,261.193C189.086,260.517 188.156,259.834 187.264,259.115C186.405,258.422 185.145,258.558 184.452,259.417C183.759,260.276 183.894,261.536 184.754,262.229Z"/>
    <path d="M199.084,249.867C199.557,250.067 200.02,250.287 200.493,250.485C201.511,250.912 202.684,250.432 203.111,249.414C203.537,248.396 203.057,247.223 202.039,246.796C201.569,246.599 201.109,246.38 200.64,246.182C199.623,245.753 198.449,246.23 198.019,247.247C197.59,248.263 198.067,249.438 199.084,249.867Z"/>
    <path d="M238.559,266.544C244.741,269.402 251.226,271.944 257.708,274.023C258.759,274.36 259.886,273.781 260.223,272.729C260.561,271.678 259.981,270.551 258.93,270.214C252.603,268.185 246.272,265.703 240.238,262.913C239.236,262.45 238.046,262.887 237.583,263.889C237.119,264.891 237.557,266.08 238.559,266.544Z"/>
    <path d="M215.557,265.225C218.414,267.164 221.485,268.907 224.528,270.532C225.501,271.052 226.714,270.684 227.234,269.71C227.754,268.736 227.386,267.524 226.412,267.004C223.492,265.444 220.544,263.775 217.802,261.915C216.888,261.295 215.644,261.534 215.024,262.448C214.405,263.361 214.643,264.606 215.557,265.225Z"/>
    <path d="M189.09,239.758C190.096,240.142 191.124,240.502 192.149,240.832C193.2,241.17 194.327,240.591 194.665,239.54C195.003,238.49 194.425,237.362 193.374,237.024C192.417,236.717 191.458,236.38 190.519,236.022C189.488,235.627 188.331,236.144 187.937,237.175C187.542,238.206 188.059,239.364 189.09,239.758Z"/>
    <path d="M224.969,253.215C227.406,253.762 229.805,254.477 232.261,254.943C233.346,255.149 234.393,254.436 234.599,253.352C234.805,252.267 234.092,251.22 233.008,251.014C230.595,250.555 228.239,249.849 225.844,249.312C224.767,249.07 223.697,249.748 223.455,250.826C223.214,251.903 223.892,252.973 224.969,253.215Z"/>
    <path d="M16.414,192.563C22.917,199.384 28.413,207.057 36.467,212.251C37.395,212.85 38.634,212.582 39.232,211.654C39.83,210.727 39.563,209.488 38.635,208.89C30.851,203.87 25.594,196.396 19.31,189.803C18.548,189.004 17.281,188.974 16.482,189.735C15.683,190.497 15.653,191.764 16.414,192.563Z"/>
    <path d="M16.905,178.568C9.797,176.357 3.568,171.541 -2.468,167.371C-3.376,166.744 -4.622,166.971 -5.25,167.88C-5.877,168.788 -5.649,170.035 -4.741,170.662C1.62,175.056 8.227,180.057 15.716,182.387C16.77,182.715 17.892,182.126 18.22,181.072C18.548,180.018 17.959,178.896 16.905,178.568Z"/>
    <path d="M0.968,138.92C-0.194,137.986 -1.377,137.075 -2.562,136.171C-3.44,135.502 -4.696,135.671 -5.365,136.549C-6.035,137.426 -5.866,138.682 -4.988,139.352C-3.829,140.235 -2.674,141.125 -1.538,142.037C-0.678,142.729 0.582,142.592 1.274,141.732C1.965,140.871 1.828,139.612 0.968,138.92Z"/>
    <path d="M-1.856,194.922C-4.906,194.26 -7.922,193.417 -10.948,192.654C-12.019,192.384 -13.107,193.034 -13.377,194.104C-13.647,195.175 -12.997,196.263 -11.926,196.533C-8.858,197.307 -5.798,198.16 -2.704,198.831C-1.626,199.065 -0.56,198.38 -0.326,197.301C-0.091,196.222 -0.777,195.156 -1.856,194.922Z"/>
    <path d="M8.12,206.137C1.308,205.243 -5.539,203.105 -12.069,201.036C-13.121,200.702 -14.246,201.286 -14.58,202.338C-14.913,203.391 -14.329,204.516 -13.277,204.849C-6.526,206.988 0.557,209.179 7.6,210.103C8.695,210.246 9.7,209.474 9.843,208.38C9.987,207.285 9.215,206.28 8.12,206.137Z"/>
</svg>
