<?xml version="1.0" encoding="UTF-8" standalone="no"?>
<!DOCTYPE svg PUBLIC "-//W3C//DTD SVG 1.1//EN" "http://www.w3.org/Graphics/SVG/1.1/DTD/svg11.dtd">
<svg width="100%" height="100%" viewBox="0 0 400 400" version="1.1" xmlns="http://www.w3.org/2000/svg" xmlns:xlink="http://www.w3.org/1999/xlink" xml:space="preserve" xmlns:serif="http://www.serif.com/" style="fill-rule:evenodd;clip-rule:evenodd;stroke-linejoin:round;stroke-miterlimit:2;">
    <g transform="matrix(0.144149,0,0,0.144149,-515.919,-49.7313)">
        <g transform="matrix(1,0,0,1,107.078,-6307.57)">
            <path d="M4859,6660C5704.59,6574.24 6272.88,7242.56 6246,8047C6220.11,8821.84 5650.41,9465.25 4859,9434C4094.09,9403.79 3472,8812.51 3472,8047C3472,7620.91 3664.55,7239.44 3967.3,6984.93C4208.48,6782.18 4521.32,6694.25 4859,6660ZM4859,7484C5223.41,7440.99 5479.85,7689.92 5422,8047C5372.31,8353.73 5169.73,8610 4859,8610C4548.27,8610 4296,8357.73 4296,8047C4296,7736.27 4550.41,7520.42 4859,7484Z" style="fill:rgb(236,183,104);"/>
        </g>
        <path d="M5169.68,783.218C5390.79,835.91 5691.59,934.67 5794.46,1162.39" style="fill:rgb(255,248,237);"/>
        <path d="M5143.02,895.085C5245.43,919.489 5366.48,954.012 5473.65,1009.35C5565.75,1056.91 5648.71,1119.09 5689.65,1209.73C5715.78,1267.57 5783.96,1293.32 5841.8,1267.19C5899.64,1241.06 5925.39,1172.89 5899.26,1115.05C5848.95,1003.67 5761.5,916.073 5655.47,848.671C5514.5,759.06 5340.11,705.612 5196.34,671.351C5134.6,656.637 5072.53,694.818 5057.81,756.56C5043.1,818.301 5081.28,880.372 5143.02,895.085Z" style="fill:rgb(243,218,181);"/>
    </g>
</svg>
