<?xml version="1.0" encoding="UTF-8" standalone="no"?>
<!DOCTYPE svg PUBLIC "-//W3C//DTD SVG 1.1//EN" "http://www.w3.org/Graphics/SVG/1.1/DTD/svg11.dtd">
<svg width="100%" height="100%" viewBox="0 0 400 400" version="1.1" xmlns="http://www.w3.org/2000/svg" xmlns:xlink="http://www.w3.org/1999/xlink" xml:space="preserve" xmlns:serif="http://www.serif.com/" style="fill-rule:evenodd;clip-rule:evenodd;stroke-linejoin:round;stroke-miterlimit:2;">
    <g transform="matrix(0.144149,0,0,0.143754,-48.5781,-49.5952)">
        <g transform="matrix(1,0,0,1,-3135,-6307.57)">
            <path d="M4859,6660C5704.59,6574.24 6272.88,7242.56 6246,8047C6220.11,8821.84 5650.41,9465.25 4859,9434C4094.09,9403.79 3472,8812.51 3472,8047C3472,7620.91 3664.55,7239.44 3967.3,6984.93C4208.48,6782.18 4521.32,6694.25 4859,6660ZM4859,7484C5223.41,7440.99 5479.85,7689.92 5422,8047C5372.31,8353.73 5169.73,8610 4859,8610C4548.27,8610 4296,8357.73 4296,8047C4296,7736.27 4550.41,7520.42 4859,7484Z" style="fill:rgb(255,221,170);"/>
        </g>
        <g transform="matrix(0.902307,0,0,0.891853,-2610.89,-5440.48)">
            <path d="M4886.15,6602.52C5293.39,6602.52 5621.44,6822.07 5868.08,7117.18C6085.07,7376.81 6246,7688.73 6246,8047C6246,8316.65 6113.78,8534.74 5986.66,8762.07C5845.9,9013.82 5697.58,9266.19 5440.29,9378.76C5270.33,9453.12 5056.25,9434 4859,9434C4346.53,9434 3893.89,9246.51 3653.76,8832.71C3535.19,8628.39 3472,8300.04 3472,8047C3472,7687.65 3562.54,7353.56 3793.4,7093.63C4054.33,6799.84 4479.99,6602.52 4886.15,6602.52ZM4841.82,7355.18C4990.74,7370.57 5292.03,7311.2 5433.64,7437.86C5585.94,7574.09 5573.28,7901.68 5573.28,8062.7C5573.28,8373.43 5193.56,8756.76 4882.83,8756.76C4732.48,8756.76 4435.48,8753.43 4294.34,8617.43C4143.78,8472.35 4125.54,8206.17 4105.93,8047C4086.3,7887.61 4104.54,7695.49 4220.08,7571.29C4361.85,7418.89 4651.14,7335.47 4841.82,7355.18Z" style="fill:rgb(235,135,186);"/>
        </g>
    </g>
</svg>
