<?xml version="1.0" encoding="UTF-8" standalone="no"?>
<!DOCTYPE svg PUBLIC "-//W3C//DTD SVG 1.1//EN" "http://www.w3.org/Graphics/SVG/1.1/DTD/svg11.dtd">
<svg width="100%" height="100%" viewBox="0 0 400 400" version="1.1" xmlns="http://www.w3.org/2000/svg" xmlns:xlink="http://www.w3.org/1999/xlink" xml:space="preserve" xmlns:serif="http://www.serif.com/" style="fill-rule:evenodd;clip-rule:evenodd;stroke-linejoin:round;stroke-miterlimit:2;">
    <g transform="matrix(0.139067,-0.0241782,0.0241149,0.138703,-158.435,-439.353)">
        <g transform="matrix(1.74404,-0.130309,0.192276,2.57339,-3157.96,-6073.12)">
            <path d="M2781,4040C2781,4040 2973.96,4124.89 3084,4085C3194.04,4045.12 3211.91,4181.07 3152,4208C3092.09,4234.93 2941.08,4338.55 2978.19,4409C3015.31,4479.45 2781,4040 2781,4040Z" style="fill:rgb(254,242,204);"/>
        </g>
        <g transform="matrix(1,0,0,1,-3135,-3113.57)">
            <path d="M4859,6660C5704.59,6574.24 6272.88,7242.56 6246,8047C6220.11,8821.84 5650.41,9465.25 4859,9434C4094.09,9403.79 3472,8812.51 3472,8047C3472,7620.91 3664.55,7239.44 3967.3,6984.93C4208.48,6782.18 4521.32,6694.25 4859,6660ZM4859,7484C5223.41,7440.99 5479.85,7689.92 5422,8047C5372.31,8353.73 5169.73,8610 4859,8610C4548.27,8610 4296,8357.73 4296,8047C4296,7736.27 4550.41,7520.42 4859,7484Z" style="fill:rgb(255,221,170);"/>
        </g>
        <g transform="matrix(1,0,0,1,9,-7)">
            <path d="M1724.46,3676.53C2259.42,3676.53 2650.09,4020.89 2830,4493C2882.8,4631.55 2978.19,4773.27 2978.19,4930.26C2978.19,5295.92 2783.07,5567.74 2533,5797C2309.85,6001.59 2050.75,6240 1724.46,6240C1032.5,6240 470.72,5622.22 470.72,4930.26C470.72,4683.04 572.259,4486.31 696,4292C918.595,3942.47 1279.73,3676.53 1724.46,3676.53Z" style="fill:rgb(94,61,38);"/>
        </g>
    </g>
</svg>
