<?xml version="1.0" encoding="UTF-8" standalone="no"?>
<!DOCTYPE svg PUBLIC "-//W3C//DTD SVG 1.1//EN" "http://www.w3.org/Graphics/SVG/1.1/DTD/svg11.dtd">
<svg width="100%" height="100%" viewBox="0 0 400 400" version="1.1" xmlns="http://www.w3.org/2000/svg" xmlns:xlink="http://www.w3.org/1999/xlink" xml:space="preserve" xmlns:serif="http://www.serif.com/" style="fill-rule:evenodd;clip-rule:evenodd;stroke-linejoin:round;stroke-miterlimit:2;">
    <g transform="matrix(0.144149,0,0,0.144149,-991.242,-49.7313)">
        <g transform="matrix(1,0,0,1,3404.53,-6307.57)">
            <path d="M4859,6660C5704.59,6574.24 6272.88,7242.56 6246,8047C6220.11,8821.84 5650.41,9465.25 4859,9434C4094.09,9403.79 3472,8812.51 3472,8047C3472,7620.91 3664.55,7239.44 3967.3,6984.93C4208.48,6782.18 4521.32,6694.25 4859,6660ZM4874.47,7572.57C4968.76,7561.44 5040.34,7481.29 5116.6,7506.06C5191.85,7530.51 5196.69,7630.31 5247.47,7683.57C5305.3,7744.21 5404.92,7762.12 5421.49,7851.63C5432.61,7911.72 5347.77,7974.13 5336.47,8043.83C5325.19,8113.44 5391.57,8183.63 5365.06,8245.64C5339.66,8305.07 5226.92,8315.45 5188.47,8363.57C5133.2,8432.75 5145.49,8532.5 5065.57,8567.62C5003.52,8594.89 4930.92,8525.57 4855.47,8525.57C4776.33,8525.57 4704.51,8593.64 4636.15,8564.11C4570.44,8535.72 4593.42,8415.44 4543.47,8365.57C4496.09,8318.24 4374.84,8342.24 4346.65,8280.56C4314.13,8209.4 4377.47,8127.13 4377.47,8043.83C4377.47,7965.83 4312.03,7896.97 4340.93,7832.26C4372.76,7761 4471.67,7751.3 4530.47,7699.57C4579.64,7656.32 4585.28,7567.83 4647.88,7540.53C4713.22,7512.03 4800.01,7581.36 4874.47,7572.57Z" style="fill:rgb(85,60,41);"/>
        </g>
        <path d="M8624.26,887.497C8628.81,889.374 8682.05,911.416 8722.94,932.116C8796.87,969.545 8885.6,1017.79 8914.05,1046.68C9032.91,1167.41 9077.42,1297.17 9137.79,1446.96C9161.51,1505.83 9228.57,1534.36 9287.44,1510.63C9346.31,1486.91 9374.84,1419.86 9351.11,1360.99C9278.91,1181.82 9220.12,1029.73 9077.95,885.32C9040.04,846.818 8925.34,776.787 8826.82,726.912C8755.07,690.591 8690.76,665.625 8667.3,661.631C8604.73,650.98 8545.28,693.133 8534.63,755.703C8524.24,816.778 8564.15,874.876 8624.26,887.497Z" style="fill:rgb(239,227,218);fill-opacity:0.63;"/>
    </g>
</svg>
