<?xml version="1.0" encoding="UTF-8" standalone="no"?>
<!DOCTYPE svg PUBLIC "-//W3C//DTD SVG 1.1//EN" "http://www.w3.org/Graphics/SVG/1.1/DTD/svg11.dtd">
<svg width="100%" height="100%" viewBox="0 0 400 400" version="1.1" xmlns="http://www.w3.org/2000/svg" xmlns:xlink="http://www.w3.org/1999/xlink" xml:space="preserve" xmlns:serif="http://www.serif.com/" style="fill-rule:evenodd;clip-rule:evenodd;stroke-linejoin:round;stroke-miterlimit:2;">
    <g transform="matrix(0.144149,0,0,0.143754,-48.5781,-49.5952)">
        <g transform="matrix(1,0,0,1,-3135,-6307.57)">
            <path d="M4859,6660C5704.59,6574.24 6272.88,7242.56 6246,8047C6220.11,8821.84 5650.41,9465.25 4859,9434C4094.09,9403.79 3472,8812.51 3472,8047C3472,7620.91 3664.55,7239.44 3967.3,6984.93C4208.48,6782.18 4521.32,6694.25 4859,6660ZM4859,7484C5223.41,7440.99 5479.85,7689.92 5422,8047C5372.31,8353.73 5169.73,8610 4859,8610C4548.27,8610 4296,8357.73 4296,8047C4296,7736.27 4550.41,7520.42 4859,7484Z" style="fill:rgb(255,221,170);"/>
        </g>
        <g transform="matrix(0.902307,0,0,0.891853,-2610.89,-5440.48)">
            <path d="M4886.15,6602.52C5293.39,6602.52 5621.44,6822.07 5868.08,7117.18C6085.07,7376.81 6246,7688.73 6246,8047C6246,8316.65 6113.78,8534.74 5986.66,8762.07C5845.9,9013.82 5697.58,9266.19 5440.29,9378.76C5270.33,9453.12 5056.25,9434 4859,9434C4346.53,9434 3893.89,9246.51 3653.76,8832.71C3535.19,8628.39 3472,8300.04 3472,8047C3472,7687.65 3562.54,7353.56 3793.4,7093.63C4054.33,6799.84 4479.99,6602.52 4886.15,6602.52ZM4841.82,7355.18C4990.74,7370.57 5292.03,7311.2 5433.64,7437.86C5585.94,7574.09 5573.28,7901.68 5573.28,8062.7C5573.28,8373.43 5193.56,8756.76 4882.83,8756.76C4732.48,8756.76 4435.48,8753.43 4294.34,8617.43C4143.78,8472.35 4125.54,8206.17 4105.93,8047C4086.3,7887.61 4104.54,7695.49 4220.08,7571.29C4361.85,7418.89 4651.14,7335.47 4841.82,7355.18Z" style="fill:rgb(235,135,186);"/>
        </g>
        <g transform="matrix(6.93727,0,0,6.95633,336.999,345)">
            <path d="M7.712,369.585C2.847,374.599 1.402,382.327 4.67,388.948C8.823,397.361 19.026,400.819 27.439,396.666C29.63,395.584 31.988,393.861 34.075,391.327C35.706,389.346 38.298,384.377 38.811,383.379C42.549,377.555 46.157,371.616 50.133,365.952C60.904,350.604 74.477,337.141 88.574,324.875C129.153,289.567 167.483,255.37 204.066,215.789C227.825,190.082 250.327,163.184 274.246,137.628C287.153,123.836 301.596,111.625 314.822,98.161C336.185,76.416 356.317,54.505 380.523,36.215C388.009,30.559 389.495,19.889 383.838,12.403C378.182,4.917 367.512,3.431 360.026,9.088C334.48,28.39 313.113,51.385 290.568,74.334C277.149,87.994 262.517,100.403 249.422,114.395C225.455,140.003 202.905,166.953 179.098,192.711C143.365,231.373 105.892,264.738 66.256,299.226C50.096,313.286 34.65,328.827 22.302,346.421C17.973,352.59 14.034,359.053 9.958,365.392C9.495,366.11 8.363,368.302 7.712,369.585Z" style="fill:rgb(221,98,98);"/>
        </g>
        <g transform="matrix(6.93727,0,0,6.95633,336.999,345)">
            <path d="M3.389,26.836C13.428,46.915 30.158,66.177 44.68,83.011C70.258,112.663 98.774,143.098 130.665,166.002C154.808,183.342 181.074,197.208 204.114,216.217C220.077,229.387 233.759,244.709 247.987,259.648C257.895,270.052 268.606,279.84 277.868,290.847C289.206,304.319 299.295,319.113 310.729,332.373C315.134,337.481 320.767,341.263 325.641,345.861C333.247,353.035 340.282,361.596 347.137,369.447C353.708,376.973 358.089,385.946 364.63,393.6C370.726,400.734 381.465,401.576 388.598,395.481C395.732,389.386 396.574,378.646 390.479,371.513C383.859,363.765 379.399,354.702 372.748,347.085C365.187,338.425 357.36,329.04 348.97,321.127C344.941,317.327 340.118,314.39 336.478,310.169C325.132,297.012 315.133,282.323 303.882,268.955C294.172,257.416 282.995,247.106 272.608,236.2C257.441,220.275 242.768,204.03 225.752,189.991C202.123,170.497 175.258,156.169 150.499,138.387C120.745,117.017 94.289,88.468 70.424,60.803C57.653,45.998 42.628,29.289 33.799,11.631C29.603,3.239 19.384,-0.167 10.992,4.029C2.6,8.225 -0.807,18.444 3.389,26.836Z" style="fill:rgb(221,98,98);"/>
        </g>
    </g>
</svg>
