<?xml version="1.0" encoding="UTF-8" standalone="no"?>
<!DOCTYPE svg PUBLIC "-//W3C//DTD SVG 1.1//EN" "http://www.w3.org/Graphics/SVG/1.1/DTD/svg11.dtd">
<svg width="100%" height="100%" viewBox="0 0 400 400" version="1.1" xmlns="http://www.w3.org/2000/svg" xmlns:xlink="http://www.w3.org/1999/xlink" xml:space="preserve" xmlns:serif="http://www.serif.com/" style="fill-rule:evenodd;clip-rule:evenodd;stroke-linejoin:round;stroke-miterlimit:2;">
    <g transform="matrix(0.140928,-0.0148478,0.0148222,0.140684,-116.354,-466.119)">
        <g transform="matrix(1.74404,-0.130309,0.192276,2.57339,-3157.96,-6073.12)">
            <path d="M2781,4040C2781,4040 2973.96,4124.89 3084,4085C3194.04,4045.12 3211.91,4181.07 3152,4208C3092.09,4234.93 2941.08,4338.55 2978.19,4409C3015.31,4479.45 2781,4040 2781,4040Z" style="fill:rgb(223,118,121);"/>
        </g>
        <g transform="matrix(1,0,0,1,-3199.76,-130.526)">
            <path d="M4923.76,3676.96C5769.35,3591.2 6337.64,4259.52 6310.76,5063.96C6284.87,5838.8 5715.17,6482.21 4923.76,6450.96C4158.85,6420.75 3536.76,5829.47 3536.76,5063.96C3536.76,4637.87 3729.31,4256.4 4032.06,4001.89C4273.23,3799.14 4586.07,3711.21 4923.76,3676.96Z" style="fill:rgb(255,221,170);"/>
        </g>
        <g transform="matrix(1,0,0,1,-3189.92,-213.045)">
            <path d="M4273.16,5506.55C4306.79,5500.69 4377.88,5468.11 4463.2,5423.03C4652.91,5322.77 4918.13,5161.47 4985.71,5129.41C5193.43,5030.85 5425.05,4954.35 5622.58,4836.69C5636.8,4828.22 5641.47,4809.79 5633,4795.57C5624.53,4781.34 5606.1,4776.67 5591.87,4785.15C5395.94,4901.85 5166.04,4977.44 4959.99,5075.2C4892.12,5107.4 4625.7,5269.29 4435.16,5369.98C4357.52,5411.01 4293.45,5442.11 4262.84,5447.45C4246.53,5450.29 4235.6,5465.85 4238.45,5482.16C4241.29,5498.47 4256.85,5509.4 4273.16,5506.55Z" style="fill:rgb(236,206,162);"/>
            <g transform="matrix(1,0,0,1,0,13.8763)">
                <path d="M4054.8,5179.69C4248.65,5091.8 4753.84,4754.07 4950.45,4670.98C5111.25,4603.02 5260.22,4508.95 5421.41,4442.88C5436.73,4436.6 5444.07,4419.07 5437.79,4403.75C5431.51,4388.43 5413.97,4381.09 5398.65,4387.36C5237.27,4453.52 5088.09,4547.67 4927.09,4615.72C4730.19,4698.93 4224.17,5037.02 4030.02,5125.04C4014.94,5131.88 4008.25,5149.67 4015.08,5164.75C4021.92,5179.83 4039.71,5186.52 4054.8,5179.69Z" style="fill:rgb(236,206,162);"/>
            </g>
            <path d="M4548.89,5895.08C4777.54,5725.23 5454.01,5429.44 5708.85,5307.4C5772.61,5276.87 5820.67,5223.45 5883.89,5193.32C5898.84,5186.2 5905.19,5168.28 5898.07,5153.34C5890.94,5138.39 5873.03,5132.03 5858.08,5139.16C5794.82,5169.3 5746.73,5222.74 5682.94,5253.29C5425.84,5376.4 4743.78,5675.56 4513.11,5846.92C4499.82,5856.79 4497.04,5875.6 4506.92,5888.89C4516.79,5902.18 4535.6,5904.96 4548.89,5895.08Z" style="fill:rgb(236,206,162);"/>
            <path d="M4426.32,4555.14C4559.07,4715.95 4658.06,4903.17 4784.15,5069.1C4908.53,5232.78 5038.13,5392.27 5179.35,5539.39C5266.36,5630.05 5327.06,5743.94 5421.7,5826.4C5434.18,5837.28 5453.15,5835.97 5464.03,5823.49C5474.9,5811 5473.6,5792.04 5461.11,5781.16C5367.81,5699.87 5308.42,5587.21 5222.64,5497.85C5083,5352.37 4954.91,5194.64 4831.93,5032.8C4705.35,4866.23 4605.85,4678.38 4472.59,4516.94C4462.05,4504.18 4443.12,4502.36 4430.35,4512.91C4417.59,4523.45 4415.78,4542.37 4426.32,4555.14Z" style="fill:rgb(236,206,162);"/>
            <path d="M4821.94,4351.78C4821.94,4366.6 4826.97,4386.39 4837.69,4409.87C4858.07,4454.5 4899.94,4516.65 4954.17,4587.47C5129.44,4816.37 5435.41,5140.31 5527.99,5251.88C5601.38,5340.31 5659.74,5443.73 5730.79,5535.09C5740.95,5548.15 5759.82,5550.51 5772.89,5540.35C5785.96,5530.18 5788.32,5511.32 5778.15,5498.25C5706.71,5406.4 5647.95,5302.48 5574.16,5213.56C5481.83,5102.29 5176.61,4779.28 5001.81,4551C4957.99,4493.78 4922.48,4442.73 4901.16,4402.8C4889.63,4381.2 4881.94,4364.09 4881.94,4351.78C4881.94,4335.22 4868.49,4321.78 4851.94,4321.78C4835.38,4321.78 4821.94,4335.22 4821.94,4351.78Z" style="fill:rgb(236,206,162);"/>
            <path d="M4085.73,4788.55C4205.37,5028.58 4389.05,5218 4536.83,5437.74C4650.6,5606.9 4734.49,5803.62 4872.24,5955.03C4883.38,5967.27 4902.37,5968.17 4914.62,5957.03C4926.87,5945.89 4927.77,5926.9 4916.62,5914.65C4780.82,5765.38 4698.78,5571.02 4586.62,5404.25C4440.28,5186.67 4257.89,4999.46 4139.43,4761.78C4132.04,4746.96 4114.02,4740.93 4099.2,4748.31C4084.38,4755.7 4078.34,4773.73 4085.73,4788.55Z" style="fill:rgb(236,206,162);"/>
        </g>
        <g transform="matrix(7.01792,0.740672,-0.739395,7.03009,471.917,3363.04)">
            <path d="M7.712,369.585C2.847,374.599 1.402,382.327 4.67,388.948C8.823,397.361 19.026,400.819 27.439,396.666C29.63,395.584 31.988,393.861 34.075,391.327C35.706,389.346 38.298,384.377 38.811,383.379C42.549,377.555 46.157,371.616 50.133,365.952C60.904,350.604 74.477,337.141 88.574,324.875C129.153,289.567 167.483,255.37 204.066,215.789C227.825,190.082 250.327,163.184 274.246,137.628C287.153,123.836 301.596,111.625 314.822,98.161C336.185,76.416 356.317,54.505 380.523,36.215C388.009,30.559 389.495,19.889 383.838,12.403C378.182,4.917 367.512,3.431 360.026,9.088C334.48,28.39 313.113,51.385 290.568,74.334C277.149,87.994 262.517,100.403 249.422,114.395C225.455,140.003 202.905,166.953 179.098,192.711C143.365,231.373 105.892,264.738 66.256,299.226C50.096,313.286 34.65,328.827 22.302,346.421C17.973,352.59 14.034,359.053 9.958,365.392C9.495,366.11 8.363,368.302 7.712,369.585Z" style="fill:rgb(221,98,98);"/>
        </g>
        <g transform="matrix(7.01792,0.740672,-0.739395,7.03009,471.917,3363.04)">
            <path d="M3.389,26.836C13.428,46.915 30.158,66.177 44.68,83.011C70.258,112.663 98.774,143.098 130.665,166.002C154.808,183.342 181.074,197.208 204.114,216.217C220.077,229.387 233.759,244.709 247.987,259.648C257.895,270.052 268.606,279.84 277.868,290.847C289.206,304.319 299.295,319.113 310.729,332.373C315.134,337.481 320.767,341.263 325.641,345.861C333.247,353.035 340.282,361.596 347.137,369.447C353.708,376.973 358.089,385.946 364.63,393.6C370.726,400.734 381.465,401.576 388.598,395.481C395.732,389.386 396.574,378.646 390.479,371.513C383.859,363.765 379.399,354.702 372.748,347.085C365.187,338.425 357.36,329.04 348.97,321.127C344.941,317.327 340.118,314.39 336.478,310.169C325.132,297.012 315.133,282.323 303.882,268.955C294.172,257.416 282.995,247.106 272.608,236.2C257.441,220.275 242.768,204.03 225.752,189.991C202.123,170.497 175.258,156.169 150.499,138.387C120.745,117.017 94.289,88.468 70.424,60.803C57.653,45.998 42.628,29.289 33.799,11.631C29.603,3.239 19.384,-0.167 10.992,4.029C2.6,8.225 -0.807,18.444 3.389,26.836Z" style="fill:rgb(221,98,98);"/>
        </g>
    </g>
</svg>
