<?xml version="1.0" encoding="UTF-8" standalone="no"?>
<!DOCTYPE svg PUBLIC "-//W3C//DTD SVG 1.1//EN" "http://www.w3.org/Graphics/SVG/1.1/DTD/svg11.dtd">
<svg width="100%" height="100%" viewBox="0 0 400 400" version="1.1" xmlns="http://www.w3.org/2000/svg" xmlns:xlink="http://www.w3.org/1999/xlink" xml:space="preserve" xmlns:serif="http://www.serif.com/" style="fill-rule:evenodd;clip-rule:evenodd;stroke-linejoin:round;stroke-miterlimit:2;">
    <g transform="matrix(0.153587,0,0,0.153587,-1075.7,-557.368)">
        <g transform="matrix(1.00628,-0.000166525,0.00016578,1.00178,6551.07,19.2969)">
            <path d="M1724.46,3676.53C1995.94,3676.53 2449.21,3662.65 2637.68,3811.71C2820.6,3956.38 2649.59,4238.96 2828.68,4411.71C2941.68,4520.71 2978.19,4773.27 2978.19,4930.26C2978.19,5139.55 2914.27,5318.1 2812.71,5475.52C2736.83,5593.13 2592.62,5583.67 2485.68,5681.71C2378.47,5780.01 2310.26,6001.41 2182.98,6085.13C2045.35,6175.65 2074.2,6094.71 1904.68,6094.71C1800.33,6094.71 1518.71,6225.95 1421.76,6199.71C1242.66,6151.25 1306.14,5856.59 1166.68,5736.71C1034.76,5623.31 697.337,5687.82 617.139,5530.98C523.692,5348.23 512.683,5130.46 512.683,4917.98C512.683,4670.75 713.942,4462.02 837.683,4267.71C956.857,4080.58 716.522,3747.47 906.683,3636.24C1071.71,3539.71 1517.83,3676.53 1724.46,3676.53Z" style="fill:rgb(143,116,49);"/>
        </g>
        <g transform="matrix(1,0,0,1,3280.91,290.738)">
            <path d="M4033,5038C4033,5038 3773.56,4700.73 4106,4565C4438.44,4429.27 4525.69,4538.24 4536,4432.52C4546.31,4326.81 4631.49,4307.98 4484,4223C4336.51,4138.02 4071.55,4016.98 4217,3961C4362.45,3905.02 4440.87,3853.25 4401,3669.53C4361.13,3485.8 4665.22,3466.7 4748,3569C4830.78,3671.3 5053.57,3942.62 5285,3811C5516.43,3679.38 5649.71,3547.6 5688,3669.53C5726.29,3791.45 5891.79,3733.91 5800,3961C5708.21,4188.09 5669.36,4430.84 5811,4432.52C5952.64,4434.2 6134.22,4584.26 6117,4647C6099.78,4709.74 6121.62,4903.65 5953,4904.05C5784.38,4904.44 5432.34,4867.81 5383,4951.26C5333.66,5034.72 5414.32,5159.76 5312,5297C5209.68,5434.24 4968.62,5500.03 4907,5455C4845.38,5409.97 4705.78,5199.11 4562,5228C4468.29,5246.83 4329.36,5301.86 4243.97,5337.9C4198.34,5357.16 4168,5371 4168,5371L4033,5038Z" style="fill:rgb(189,138,11);"/>
        </g>
        <g transform="matrix(0.968682,-0.248305,0.248305,0.968682,2373.1,1628.74)">
            <path d="M4719,4697.52C4558.32,4754.09 4345.93,4768.34 4545,4833C4744.07,4897.66 4683.92,5066.45 4831,4982C4978.08,4897.55 4925.26,4575.89 5087,4645C5248.74,4714.11 5413.56,5076 5455,4763C5496.44,4450 5495.6,4435.11 5472,4385C5448.4,4334.89 5341.53,4049.84 5226,4043C5110.48,4036.16 5085.45,4133.2 5027.38,4170C4969.31,4206.8 4827.78,4137.78 4770,3999C4712.22,3860.22 4650.18,4334.32 4676,4383C4701.82,4431.68 4879.68,4640.96 4719,4697.52Z" style="fill:rgb(237,211,144);"/>
        </g>
    </g>
</svg>
