<?xml version="1.0" encoding="UTF-8" standalone="no"?>
<!DOCTYPE svg PUBLIC "-//W3C//DTD SVG 1.1//EN" "http://www.w3.org/Graphics/SVG/1.1/DTD/svg11.dtd">
<svg width="100%" height="100%" viewBox="0 0 1000 50" version="1.1" xmlns="http://www.w3.org/2000/svg" xmlns:xlink="http://www.w3.org/1999/xlink" xml:space="preserve" xmlns:serif="http://www.serif.com/" style="fill-rule:evenodd;clip-rule:evenodd;stroke-linejoin:round;stroke-miterlimit:2;">
    <path d="M1000,9L1000,0L0,0L0,12C0,12 40.781,4.949 89,8C155.519,12.208 237.146,26.181 254,19C264.74,14.424 333.019,17.515 374,16C443.94,13.415 499.435,8.449 525,9C537.363,9.266 564.348,22.509 594,25C611.351,26.458 628.689,17.434 647,18C700.019,19.639 749.721,15.708 762,14C785.768,10.694 819.5,2.018 833,8C846.5,13.982 879.761,17.997 899,15C918.239,12.003 977.898,2.351 1000,9Z" style="fill:rgb(253,126,157);"/>
</svg>
