<?xml version="1.0" encoding="UTF-8" standalone="no"?>
<!DOCTYPE svg PUBLIC "-//W3C//DTD SVG 1.1//EN" "http://www.w3.org/Graphics/SVG/1.1/DTD/svg11.dtd">
<svg width="100%" height="100%" viewBox="0 0 1000 500" version="1.1" xmlns="http://www.w3.org/2000/svg" xmlns:xlink="http://www.w3.org/1999/xlink" xml:space="preserve" xmlns:serif="http://www.serif.com/" style="fill-rule:evenodd;clip-rule:evenodd;stroke-linejoin:round;stroke-miterlimit:2;">
    <path d="M1000,58L1000,0L0,0L0,66C7.734,83.358 25.997,101 45,101C59.828,101 57.626,66 72.453,66C96.929,66 114.611,91.113 137,101C144.101,104.136 158.624,97.021 159.999,104.662C171.618,169.214 108.226,290.688 173,301C236.285,311.075 173.395,171.21 191.025,109.601C194.288,98.197 220.418,104.821 226.167,115.196C241.309,142.519 214.15,202.089 245,207C273.952,211.609 242.38,139.683 265.32,121.429C284.516,106.155 313.475,133.575 338,133C352.622,132.657 370.974,106.866 379.499,118.75C400.686,148.283 369.624,236.804 404,225C443.153,211.556 399.924,134.911 426.021,102.776C449.815,73.474 507.325,38.443 533.12,66C579.046,115.063 508.796,263 576,263C642.318,263 578.346,127.232 603.815,66C633.506,-5.383 655.582,70.844 681,65C715.81,56.997 707.315,34.569 743,34C809.222,32.944 742.145,112.576 806,130C830.459,136.674 807.597,75.437 823.994,56.101C832.102,46.54 855.969,54.227 860.274,66C877.154,112.165 831.845,212 881,212C929.751,212 868.728,110.051 889.613,66C917.455,7.277 958.663,108.095 1000,58Z" style="fill:rgb(254,249,225);"/>
</svg>
