<?xml version="1.0" encoding="UTF-8" standalone="no"?>
<!DOCTYPE svg PUBLIC "-//W3C//DTD SVG 1.1//EN" "http://www.w3.org/Graphics/SVG/1.1/DTD/svg11.dtd">
<svg width="100%" height="100%" viewBox="0 0 800 600" version="1.1" xmlns="http://www.w3.org/2000/svg" xmlns:xlink="http://www.w3.org/1999/xlink" xml:space="preserve" xmlns:serif="http://www.serif.com/" style="fill-rule:evenodd;clip-rule:evenodd;stroke-linejoin:round;stroke-miterlimit:2;">
    <g transform="matrix(3.43533,0,0,4.72057,-888.037,-3231.96)">
        <text x="266.538px" y="783.826px" style="font-family:'ArialRoundedMTBold', 'Arial Rounded MT Bold', sans-serif;font-size:50px;fill:rgb(77,47,47);">D</text>
    </g>
    <g transform="matrix(3.43533,0,0,4.72057,-467.23,-3231.96)">
        <text x="266.538px" y="783.826px" style="font-family:'ArialRoundedMTBold', 'Arial Rounded MT Bold', sans-serif;font-size:50px;fill:rgb(77,47,47);">U</text>
    </g>
    <g transform="matrix(3.43533,0,0,4.72057,-347.153,-3231.96)">
        <text x="266.538px" y="783.826px" style="font-family:'ArialRoundedMTBold', 'Arial Rounded MT Bold', sans-serif;font-size:50px;fill:rgb(77,47,47);">T</text>
    </g>
    <g transform="matrix(3.43533,0,0,4.72057,-254.283,-3231.96)">
        <text x="266.538px" y="783.826px" style="font-family:'ArialRoundedMTBold', 'Arial Rounded MT Bold', sans-serif;font-size:50px;fill:rgb(77,47,47);">S</text>
    </g>
    <g transform="matrix(3.43533,0,0,4.72057,-580.307,-3231.96)">
        <text x="266.538px" y="783.826px" style="font-family:'ArialRoundedMTBold', 'Arial Rounded MT Bold', sans-serif;font-size:50px;fill:rgb(77,47,47);">N</text>
    </g>
    <g transform="matrix(3.43533,0,0,4.72057,-889.03,-3422.41)">
        <path d="M303.134,769.275L303.134,776.136C303.134,777.047 303.045,777.775 302.866,778.321C302.687,778.866 302.357,779.358 301.877,779.798C301.397,780.237 300.782,780.66 300.034,781.067C297.869,782.239 295.786,783.094 293.784,783.631C291.782,784.168 289.601,784.436 287.241,784.436C284.49,784.436 281.984,784.013 279.721,783.167C277.459,782.321 275.53,781.092 273.935,779.48C272.34,777.869 271.115,775.916 270.261,773.621C269.406,771.326 268.979,768.763 268.979,765.931C268.979,763.147 269.394,760.6 270.224,758.289C271.054,755.978 272.275,754.017 273.886,752.405C275.498,750.794 277.459,749.561 279.77,748.706C282.081,747.852 284.702,747.425 287.631,747.425C290.04,747.425 292.172,747.746 294.028,748.389C295.883,749.032 297.389,749.842 298.544,750.818C299.7,751.795 300.571,752.828 301.157,753.919C301.743,755.009 301.43,755.081 301.43,755.927C301.43,756.839 301.092,757.616 300.417,758.259C299.742,758.902 298.932,759.223 297.988,759.223C297.467,759.223 296.966,759.101 296.486,758.857C296.006,758.613 295.603,758.271 295.278,757.831C294.383,756.432 294.231,756.271 293.613,755.555C292.994,754.838 292.16,754.236 291.11,753.748C290.06,753.26 288.722,753.016 287.094,753.016C285.418,753.016 283.92,753.304 282.602,753.882C281.284,754.46 280.157,755.298 279.221,756.397C278.285,757.496 277.569,758.842 277.072,760.437C276.576,762.032 276.328,763.798 276.328,765.735C276.328,769.935 277.292,773.165 279.221,775.428C281.149,777.69 283.839,778.821 287.289,778.821C288.966,778.821 290.541,778.602 292.014,778.162C293.487,777.723 294.98,777.096 296.494,776.282L296.494,770.472L290.878,770.472C289.527,770.472 288.506,770.268 287.814,769.861C287.123,769.454 286.777,768.763 286.777,767.786C286.777,766.989 287.066,766.329 287.644,765.809C288.221,765.288 289.007,765.027 289.999,765.027L298.227,765.027C299.236,765.027 300.091,765.117 300.79,765.296C301.49,765.475 302.056,765.874 302.487,766.492C302.919,767.111 303.134,768.038 303.134,769.275Z" style="fill:rgb(255,186,73);fill-rule:nonzero;"/>
        <path d="M325.79,747.425C329.501,747.425 332.687,748.178 335.349,749.683C338.01,751.189 340.024,753.329 341.391,756.104C342.758,758.879 343.442,762.138 343.442,765.882C343.442,768.649 343.067,771.163 342.319,773.426C341.57,775.688 340.447,777.649 338.95,779.31C337.452,780.97 335.613,782.239 333.432,783.118C331.251,783.997 328.753,784.436 325.937,784.436C323.137,784.436 320.631,783.985 318.417,783.081C316.204,782.178 314.357,780.905 312.875,779.261C311.394,777.617 310.275,775.639 309.519,773.328C308.762,771.017 308.383,768.518 308.383,765.833C308.383,763.082 308.778,760.56 309.567,758.265C310.357,755.97 311.5,754.017 312.998,752.405C314.495,750.794 316.318,749.561 318.466,748.706C320.615,747.852 323.056,747.425 325.79,747.425ZM336.093,765.833C336.093,763.213 335.67,760.942 334.824,759.021C333.977,757.101 332.769,755.648 331.198,754.664C329.628,753.679 327.825,753.186 325.79,753.186C324.342,753.186 323.003,753.459 321.774,754.004C320.546,754.55 319.488,755.343 318.601,756.385C317.713,757.426 317.014,758.757 316.501,760.376C315.988,761.996 315.732,763.815 315.732,765.833C315.732,767.867 315.988,769.707 316.501,771.351C317.014,772.994 317.738,774.358 318.674,775.44C319.61,776.522 320.684,777.332 321.896,777.869C323.109,778.406 324.44,778.675 325.888,778.675C327.744,778.675 329.449,778.211 331.003,777.283C332.557,776.355 333.794,774.923 334.714,772.986C335.633,771.049 336.093,768.665 336.093,765.833Z" style="fill:rgb(255,186,73);fill-rule:nonzero;"/>
        <path d="M356.748,751.819L356.748,777.869L371.445,777.869C372.617,777.869 373.516,778.154 374.143,778.724C374.769,779.293 375.082,780.009 375.082,780.872C375.082,781.751 374.773,782.463 374.155,783.008C373.536,783.553 372.633,783.826 371.445,783.826L353.94,783.826C352.361,783.826 351.226,783.476 350.534,782.776C349.842,782.076 349.497,780.945 349.497,779.383L349.497,751.819C349.497,750.354 349.826,749.256 350.485,748.523C351.144,747.791 352.011,747.425 353.085,747.425C354.176,747.425 355.059,747.787 355.734,748.511C356.41,749.235 356.748,750.338 356.748,751.819Z" style="fill:rgb(255,186,73);fill-rule:nonzero;"/>
        <path d="M384.335,748.035L393.784,748.035C396.241,748.035 398.349,748.263 400.107,748.719C401.865,749.174 403.46,750.029 404.892,751.282C408.619,754.472 410.483,759.323 410.483,765.833C410.483,767.981 410.296,769.943 409.921,771.717C409.547,773.491 408.969,775.09 408.188,776.514C407.407,777.938 406.406,779.212 405.185,780.335C404.225,781.198 403.175,781.889 402.036,782.41C400.896,782.931 399.671,783.297 398.361,783.509C397.051,783.72 395.574,783.826 393.93,783.826L384.482,783.826C383.164,783.826 382.171,783.627 381.503,783.228C380.836,782.829 380.401,782.268 380.197,781.543C379.994,780.819 379.892,779.879 379.892,778.724L379.892,752.478C379.892,750.916 380.242,749.785 380.942,749.085C381.642,748.385 382.773,748.035 384.335,748.035ZM387.143,753.772L387.143,778.064L392.636,778.064C393.841,778.064 394.785,778.032 395.468,777.967C396.152,777.902 396.86,777.739 397.592,777.478C398.325,777.218 398.959,776.852 399.497,776.38C401.922,774.329 403.134,770.797 403.134,765.784C403.134,762.252 402.601,759.607 401.535,757.85C400.469,756.092 399.155,754.973 397.592,754.493C396.03,754.012 394.142,753.772 391.928,753.772L387.143,753.772Z" style="fill:rgb(255,186,73);fill-rule:nonzero;"/>
        <path d="M440.439,753.626L424.106,753.626L424.106,762.415L439.145,762.415C440.252,762.415 441.078,762.663 441.623,763.16C442.168,763.656 442.441,764.311 442.441,765.125C442.441,765.939 442.172,766.602 441.635,767.115C441.098,767.627 440.268,767.884 439.145,767.884L424.106,767.884L424.106,778.064L441,778.064C442.14,778.064 442.998,778.329 443.576,778.858C444.154,779.387 444.443,780.091 444.443,780.97C444.443,781.816 444.154,782.504 443.576,783.033C442.998,783.562 442.14,783.826 441,783.826L421.298,783.826C419.72,783.826 418.584,783.476 417.893,782.776C417.201,782.076 416.855,780.945 416.855,779.383L416.855,752.478C416.855,751.437 417.01,750.586 417.319,749.927C417.628,749.268 418.112,748.788 418.771,748.487C419.431,748.186 420.273,748.035 421.298,748.035L440.439,748.035C441.595,748.035 442.453,748.291 443.015,748.804C443.576,749.317 443.857,749.988 443.857,750.818C443.857,751.665 443.576,752.344 443.015,752.857C442.453,753.37 441.595,753.626 440.439,753.626Z" style="fill:rgb(255,186,73);fill-rule:nonzero;"/>
        <path d="M459.653,751.77L473.593,772.864L473.593,751.575C473.593,750.192 473.89,749.154 474.484,748.462C475.078,747.771 475.88,747.425 476.889,747.425C477.931,747.425 478.753,747.771 479.355,748.462C479.957,749.154 480.258,750.192 480.258,751.575L480.258,779.725C480.258,782.866 478.956,784.436 476.352,784.436C475.701,784.436 475.115,784.343 474.594,784.156C474.073,783.969 473.585,783.671 473.129,783.265C472.674,782.858 472.25,782.382 471.86,781.836C471.469,781.291 471.079,780.734 470.688,780.164L457.089,759.314L457.089,780.286C457.089,781.653 456.772,782.687 456.137,783.387C455.502,784.087 454.689,784.436 453.696,784.436C452.67,784.436 451.848,784.082 451.23,783.374C450.611,782.666 450.302,781.637 450.302,780.286L450.302,752.674C450.302,751.502 450.432,750.582 450.693,749.915C451.002,749.183 451.515,748.584 452.231,748.121C452.947,747.657 453.72,747.425 454.55,747.425C455.201,747.425 455.759,747.531 456.223,747.742C456.686,747.954 457.093,748.239 457.443,748.597C457.793,748.955 458.151,749.419 458.518,749.988C458.884,750.558 459.262,751.152 459.653,751.77Z" style="fill:rgb(255,186,73);fill-rule:nonzero;"/>
    </g>
    <g transform="matrix(0.0696586,0,0,0.07169,127.228,259.788)">
        <g transform="matrix(1,0,0,1,-3135,-6307.57)">
            <path d="M4859,6660C5704.59,6574.24 6272.88,7242.56 6246,8047C6220.11,8821.84 5650.41,9465.25 4859,9434C4094.09,9403.79 3472,8812.51 3472,8047C3472,7620.91 3664.55,7239.44 3967.3,6984.93C4208.48,6782.18 4521.32,6694.25 4859,6660ZM4859,7484C5223.41,7440.99 5479.85,7689.92 5422,8047C5372.31,8353.73 5169.73,8610 4859,8610C4548.27,8610 4296,8357.73 4296,8047C4296,7736.27 4550.41,7520.42 4859,7484Z" style="fill:rgb(255,221,170);"/>
        </g>
        <g transform="matrix(0.902307,0,0,0.891853,-2610.89,-5440.48)">
            <path d="M4886.15,6602.52C5293.39,6602.52 5621.44,6822.07 5868.08,7117.18C6085.07,7376.81 6246,7688.73 6246,8047C6246,8316.65 6113.78,8534.74 5986.66,8762.07C5845.9,9013.82 5697.58,9266.19 5440.29,9378.76C5270.33,9453.12 5056.25,9434 4859,9434C4346.53,9434 3893.89,9246.51 3653.76,8832.71C3535.19,8628.39 3472,8300.04 3472,8047C3472,7687.65 3562.54,7353.56 3793.4,7093.63C4054.33,6799.84 4479.99,6602.52 4886.15,6602.52ZM4841.82,7355.18C4990.74,7370.57 5292.03,7311.2 5433.64,7437.86C5585.94,7574.09 5573.28,7901.68 5573.28,8062.7C5573.28,8373.43 5193.56,8756.76 4882.83,8756.76C4732.48,8756.76 4435.48,8753.43 4294.34,8617.43C4143.78,8472.35 4125.54,8206.17 4105.93,8047C4086.3,7887.61 4104.54,7695.49 4220.08,7571.29C4361.85,7418.89 4651.14,7335.47 4841.82,7355.18Z" style="fill:rgb(235,135,186);"/>
        </g>
    </g>
</svg>
